<?xml version="1.0" encoding="utf-8"?>
<svg width="240.94095458984376px" height="135.8463165283203px" viewBox="169.448 51.135 161.933 49.552" style="background: none;" preserveAspectRatio="xMidYMid" xmlns="http://www.w3.org/2000/svg">
  <defs>
    <filter id="editing-hole" x="-100%" y="-100%" width="300%" height="300%">
      <feFlood flood-color="none" result="black"/>
      <feMorphology operator="dilate" radius="2" in="SourceGraphic" result="erode"/>
      <feGaussianBlur in="erode" stdDeviation="4" result="blur"/>
      <feOffset in="blur" dx="2" dy="2" result="offset"/>
      <feComposite operator="atop" in="offset" in2="black" result="merge"/>
      <feComposite operator="in" in="merge" in2="SourceGraphic" result="inner-shadow"/>
    </filter>
  </defs>
  <g filter="url(#editing-hole)">
    <g transform="translate(169.13500452041626, 98.10500144958496)">
      <path d="M41.28-3.90L42.24-3.20L42.24-3.20Q40.77-1.02 39.30-0.06L39.30-0.06L39.30-0.06Q37.82 0.90 35.39 0.90L35.39 0.90L35.39 0.90Q32.77 0.90 31.07-0.64L31.07-0.64L31.07-0.64Q29.38-2.18 28.54-6.02L28.54-6.02L27.14-12.42L27.14-12.42Q26.37-15.74 25.70-17.54L25.70-17.54L25.70-17.54Q25.02-19.33 23.68-20.42L23.68-20.42L23.68-20.42Q22.34-21.50 19.90-21.50L19.90-21.50L13.82-21.50L13.82-6.78L13.82-6.78Q13.82-4.35 14.21-3.26L14.21-3.26L14.21-3.26Q14.59-2.18 15.65-1.79L15.65-1.79L15.65-1.79Q16.70-1.41 19.01-1.28L19.01-1.28L19.01 0L19.01 0Q16.06-0.19 10.88-0.19L10.88-0.19L10.88-0.19Q5.38-0.19 2.69 0L2.69 0L2.69-1.28L2.69-1.28Q4.99-1.41 6.05-1.79L6.05-1.79L6.05-1.79Q7.10-2.18 7.49-3.26L7.49-3.26L7.49-3.26Q7.87-4.35 7.87-6.78L7.87-6.78L7.87-38.53L7.87-38.53Q7.87-40.96 7.49-42.05L7.49-42.05L7.49-42.05Q7.10-43.14 6.05-43.52L6.05-43.52L6.05-43.52Q4.99-43.90 2.69-44.03L2.69-44.03L2.69-45.31L2.69-45.31Q5.38-45.12 10.50-45.12L10.50-45.12L17.41-45.18L17.41-45.18Q18.62-45.25 20.16-45.25L20.16-45.25L20.16-45.25Q27.58-45.25 31.58-42.14L31.58-42.14L31.58-42.14Q35.58-39.04 35.58-34.11L35.58-34.11L35.58-34.11Q35.58-31.62 34.40-29.09L34.40-29.09L34.40-29.09Q33.22-26.56 30.43-24.54L30.43-24.54L30.43-24.54Q27.65-22.53 23.17-21.82L23.17-21.82L23.94-21.70L23.94-21.70Q28.16-20.99 30.08-19.14L30.08-19.14L30.08-19.14Q32-17.28 32.90-13.25L32.90-13.25L34.50-6.72L34.50-6.72Q35.14-3.78 35.84-2.62L35.84-2.62L35.84-2.62Q36.54-1.47 37.76-1.47L37.76-1.47L37.76-1.47Q38.85-1.47 39.58-2.05L39.58-2.05L39.58-2.05Q40.32-2.62 41.28-3.90L41.28-3.90ZM18.56-44.03L18.56-44.03Q16.58-44.03 15.58-43.58L15.58-43.58L15.58-43.58Q14.59-43.14 14.21-41.98L14.21-41.98L14.21-41.98Q13.82-40.83 13.82-38.53L13.82-38.53L13.82-22.78L18.11-22.78L18.11-22.78Q24.45-22.78 26.82-25.60L26.82-25.60L26.82-25.60Q29.18-28.42 29.18-33.41L29.18-33.41L29.18-33.41Q29.18-38.66 26.69-41.34L26.69-41.34L26.69-41.34Q24.19-44.03 18.56-44.03L18.56-44.03ZM64.58-39.81L64.58-39.81Q70.46-39.81 74.91-37.47L74.91-37.47L74.91-37.47Q79.36-35.14 81.79-30.62L81.79-30.62L81.79-30.62Q84.22-26.11 84.22-19.84L84.22-19.84L84.22-19.84Q84.22-13.70 81.70-8.99L81.70-8.99L81.70-8.99Q79.17-4.29 74.69-1.70L74.69-1.70L74.69-1.70Q70.21 0.90 64.51 0.90L64.51 0.90L64.51 0.90Q58.62 0.90 54.18-1.44L54.18-1.44L54.18-1.44Q49.73-3.78 47.30-8.29L47.30-8.29L47.30-8.29Q44.86-12.80 44.86-19.07L44.86-19.07L44.86-19.07Q44.86-25.22 47.39-29.92L47.39-29.92L47.39-29.92Q49.92-34.62 54.40-37.22L54.40-37.22L54.40-37.22Q58.88-39.81 64.58-39.81L64.58-39.81ZM64.32-38.66L64.32-38.66Q60.42-38.66 57.44-36.19L57.44-36.19L57.44-36.19Q54.46-33.73 52.86-29.34L52.86-29.34L52.86-29.34Q51.26-24.96 51.26-19.33L51.26-19.33L51.26-19.33Q51.26-13.63 53.06-9.28L53.06-9.28L53.06-9.28Q54.85-4.93 57.92-2.59L57.92-2.59L57.92-2.59Q60.99-0.26 64.77-0.26L64.77-0.26L64.77-0.26Q68.67-0.26 71.65-2.72L71.65-2.72L71.65-2.72Q74.62-5.18 76.22-9.57L76.22-9.57L76.22-9.57Q77.82-13.95 77.82-19.58L77.82-19.58L77.82-19.58Q77.82-25.28 76.03-29.63L76.03-29.63L76.03-29.63Q74.24-33.98 71.17-36.32L71.17-36.32L71.17-36.32Q68.10-38.66 64.32-38.66L64.32-38.66ZM120.64-38.91L120.64-37.63L98.05-1.47L112.13-1.47L112.13-1.47Q115.46-1.47 117.18-3.87L117.18-3.87L117.18-3.87Q118.91-6.27 119.42-12.16L119.42-12.16L120.90-12.16L120.90-12.16Q120.70-10.18 120.70-6.91L120.70-6.91L120.70-6.91Q120.70-3.84 121.15 0L121.15 0L121.15 0Q116.61-0.19 105.86-0.19L105.86-0.19L105.86-0.19Q95.62-0.19 90.94 0L90.94 0L90.94-1.28L113.54-37.44L100.10-37.44L100.10-37.44Q96.77-37.44 95.04-35.04L95.04-35.04L95.04-35.04Q93.31-32.64 92.80-26.75L92.80-26.75L91.33-26.75L91.33-26.75Q91.52-28.80 91.52-32L91.52-32L91.52-32Q91.52-35.07 91.07-38.91L91.07-38.91L91.07-38.91Q95.62-38.72 106.37-38.72L106.37-38.72L106.37-38.72Q116.16-38.72 120.64-38.91L120.64-38.91ZM158.59-7.55L158.59-7.55Q158.59-4.22 159.04 0L159.04 0L159.04 0Q154.88-0.19 145.02-0.19L145.02-0.19L145.02-0.19Q133.18-0.19 127.10 0L127.10 0L127.10-1.28L127.10-1.28Q129.41-1.41 130.46-1.79L130.46-1.79L130.46-1.79Q131.52-2.18 131.90-3.26L131.90-3.26L131.90-3.26Q132.29-4.35 132.29-6.78L132.29-6.78L132.29-32.13L132.29-32.13Q132.29-34.56 131.90-35.65L131.90-35.65L131.90-35.65Q131.52-36.74 130.46-37.12L130.46-37.12L130.46-37.12Q129.41-37.50 127.10-37.63L127.10-37.63L127.10-38.91L127.10-38.91Q133.18-38.72 145.02-38.72L145.02-38.72L145.02-38.72Q153.98-38.72 157.76-38.91L157.76-38.91L157.76-38.91Q157.31-35.07 157.31-32L157.31-32L157.31-32Q157.31-29.50 157.50-28.03L157.50-28.03L156.03-28.03L156.03-28.03Q155.58-33.28 153.82-35.36L153.82-35.36L153.82-35.36Q152.06-37.44 148.10-37.44L148.10-37.44L143.42-37.44L143.42-37.44Q141.12-37.44 140.06-37.09L140.06-37.09L140.06-37.09Q139.01-36.74 138.62-35.65L138.62-35.65L138.62-35.65Q138.24-34.56 138.24-32.13L138.24-32.13L138.24-20.22L143.55-20.22L143.55-20.22Q145.60-20.22 146.69-21.28L146.69-21.28L146.69-21.28Q147.78-22.34 148.16-23.58L148.16-23.58L148.16-23.58Q148.54-24.83 148.86-26.75L148.86-26.75L150.34-26.75L150.34-26.75Q150.14-24.58 150.14-22.02L150.14-22.02L150.14-19.58L150.14-19.58Q150.14-17.09 150.53-12.42L150.53-12.42L149.06-12.42L149.06-12.42Q148.67-15.49 147.58-17.22L147.58-17.22L147.58-17.22Q146.50-18.94 143.55-18.94L143.55-18.94L138.24-18.94L138.24-6.78L138.24-6.78Q138.24-4.35 138.62-3.26L138.62-3.26L138.62-3.26Q139.01-2.18 140.06-1.82L140.06-1.82L140.06-1.82Q141.12-1.47 143.42-1.47L143.42-1.47L148.10-1.47L148.10-1.47Q151.30-1.47 153.15-2.50L153.15-2.50L153.15-2.50Q155.01-3.52 155.97-5.79L155.97-5.79L155.97-5.79Q156.93-8.06 157.31-12.16L157.31-12.16L158.78-12.16L158.78-12.16Q158.59-10.43 158.59-7.55L158.59-7.55Z" fill="#0064d6"/>
    </g>
  </g>
  <style>text {
  font-size: 64px;
  font-family: Arial Black;
  dominant-baseline: central;
  text-anchor: middle;
}</style>
</svg>